<?xml version="1.0" encoding="UTF-8"?>
<svg version="1.1" xmlns="http://www.w3.org/2000/svg" width="512" height="512">
<path d="M0 0 C1.3970508 -0.00271405 2.79410017 -0.00627729 4.19114685 -0.01062012 C7.96591931 -0.01969724 11.74058181 -0.01621927 15.51535606 -0.00986195 C19.4767523 -0.00477764 23.4381395 -0.00950013 27.39953613 -0.01263428 C34.05039144 -0.01626686 40.70120224 -0.01149344 47.35205078 -0.00195312 C55.02741389 0.00893007 62.70267072 0.00540399 70.37803125 -0.00560594 C76.98294305 -0.01469902 83.58782297 -0.01595422 90.19273901 -0.0107286 C94.13099756 -0.00762 98.06920625 -0.00716892 102.00746155 -0.01380157 C105.71098334 -0.01960388 109.41436889 -0.01552569 113.11787605 -0.00401306 C115.11536093 -0.00013256 117.11285741 -0.00602747 119.1103363 -0.01226807 C127.97536905 0.02930284 136.06276123 0.18825828 143.09179688 6.25878906 C147.93400576 13.55380197 147.6677335 20.55291952 147.62524414 29.08496094 C147.6323106 30.58053943 147.64105867 32.07611077 147.65135193 33.57167053 C147.67377272 37.61511156 147.67092374 41.65815982 147.66203046 45.70163918 C147.65690562 49.08384506 147.66422511 52.4659781 147.67150253 55.84817648 C147.68847781 63.82935092 147.6849591 71.81033405 147.66821289 79.79150391 C147.65128639 88.01234272 147.66713849 96.23265073 147.69943577 104.45343161 C147.72616242 111.52546146 147.73339962 118.59732638 147.72492069 125.66940165 C147.72000132 129.88721918 147.72215341 134.10471731 147.74270821 138.32249451 C147.76111446 142.28888166 147.75504725 146.25450715 147.7305088 150.22085381 C147.72551682 151.67202312 147.72894876 153.12325099 147.74165726 154.57437325 C147.80616645 162.57645722 147.79840078 169.17886029 142.09179688 175.25878906 C137.35126952 178.9564004 133.83966686 180.38645621 127.88598633 180.37231445 C126.81030396 180.3721936 125.73462158 180.37207275 124.62634277 180.37194824 C123.49732544 180.36683228 122.36830811 180.36171631 121.20507812 180.35644531 C120.1662146 180.35543823 119.12735107 180.35443115 118.05700684 180.35339355 C114.17275897 180.34815777 110.28852682 180.33419652 106.40429688 180.32128906 C97.72117187 180.30066406 89.03804688 180.28003906 80.09179688 180.25878906 C80.42179687 211.27878906 80.75179688 242.29878906 81.09179688 274.25878906 C89.01179688 275.90878906 96.93179687 277.55878906 105.09179688 279.25878906 C123.02600126 285.23685719 135.60706734 297.5475609 144.09179688 314.25878906 C147.00042873 321.73637047 147.55908588 328.73034833 147.56054688 336.69628906 C147.5681604 337.85700928 147.57577393 339.01772949 147.58361816 340.21362305 C147.59436597 342.65411236 147.59729409 345.09464746 147.59277344 347.53515625 C147.59179957 351.2485062 147.63351966 354.95979826 147.67773438 358.67285156 C147.68294121 361.0556598 147.68562957 363.43847514 147.68554688 365.82128906 C147.70194214 366.91948975 147.7183374 368.01769043 147.73522949 369.14916992 C147.66152114 377.45109166 145.82569897 384.16663137 140.13122559 390.4074707 C133.70561248 396.61411064 127.03697586 398.61905299 118.27929688 398.52246094 C117.39242188 398.49732422 116.50554687 398.4721875 115.59179688 398.44628906 C114.67398437 398.43275391 113.75617188 398.41921875 112.81054688 398.40527344 C110.57032885 398.37027003 108.33139093 398.32117775 106.09179688 398.25878906 C105.98609375 399.13019531 105.88039063 400.00160156 105.77148438 400.89941406 C103.60431823 411.61069501 95.65895734 419.99153745 87.09179688 426.25878906 C83.52474114 428.27206753 79.93118852 429.8446028 76.09179688 431.25878906 C75.10179687 431.67128906 74.11179687 432.08378906 73.09179688 432.50878906 C59.72206789 435.85122131 46.15939218 433.88223494 34.09179688 427.25878906 C24.39071315 420.7571356 16.94909843 412.37689356 13.09179688 401.25878906 C13.09179688 400.26878906 13.09179688 399.27878906 13.09179688 398.25878906 C-66.76820313 398.25878906 -146.62820312 398.25878906 -228.90820312 398.25878906 C-230.39320313 402.71378906 -230.39320313 402.71378906 -231.90820312 407.25878906 C-233.65876024 410.45180524 -235.76012291 413.32173568 -237.90820312 416.25878906 C-238.48570312 417.12503906 -239.06320313 417.99128906 -239.65820312 418.88378906 C-247.45382884 427.11250509 -258.81423153 433.1864574 -270.28710938 433.49707031 C-279.82525406 433.7017357 -288.27288957 433.82458704 -296.90820312 429.25878906 C-297.76542969 428.82308594 -298.62265625 428.38738281 -299.50585938 427.93847656 C-308.12509735 423.18034519 -315.75341964 416.33371089 -319.90820312 407.25878906 C-320.36685389 405.23802775 -320.82516591 403.21718953 -321.28320312 401.19628906 C-322.55113338 397.17023165 -323.37418414 395.62387655 -326.89648438 393.21582031 C-330.09139199 391.64064437 -333.39510912 390.35288416 -336.72607422 389.09619141 C-357.53349877 381.1112433 -357.53349877 381.1112433 -362.90820312 372.25878906 C-363.25549469 371.72746368 -363.60278625 371.19613831 -363.96060181 370.64871216 C-365.32902413 367.19744626 -365.20306641 363.81894878 -365.19873047 360.16064453 C-365.20544769 359.34706985 -365.21216492 358.53349518 -365.21908569 357.69526672 C-365.23808175 355.00544112 -365.2419914 352.31586508 -365.24414062 349.62597656 C-365.25056999 347.74992776 -365.25729845 345.87387996 -365.26431274 343.99783325 C-365.27629134 340.06200845 -365.27999322 336.12627143 -365.27880859 332.19042969 C-365.27860596 327.1669604 -365.30584813 322.14406037 -365.34035301 317.12072563 C-365.36268821 313.24288391 -365.36664403 309.36517742 -365.36558914 305.48727798 C-365.36793745 303.63665948 -365.37671722 301.7860368 -365.39225388 299.93548203 C-365.49111302 286.93798727 -365.00292668 276.81412169 -355.62304688 266.93847656 C-348.21341088 259.68074654 -339.87900822 257.01221073 -329.90820312 254.94628906 C-307.23612807 249.85344658 -290.60736608 238.86527088 -273.70117188 223.21582031 C-254.74282844 205.77414435 -228.42716008 197.1259342 -203.01025391 197.09765625 C-201.93438522 197.09269135 -200.85851654 197.08772644 -199.75004578 197.08261108 C-196.20119578 197.06804441 -192.65239057 197.06119464 -189.10351562 197.05566406 C-187.2749534 197.051423 -187.2749534 197.051423 -185.40945053 197.04709625 C-178.95135024 197.03212141 -172.49327218 197.0228827 -166.03515625 197.01855469 C-159.40396921 197.01308967 -152.77299485 196.9890983 -146.14186287 196.96058273 C-141.00960727 196.94183695 -135.87740029 196.93674431 -130.74511337 196.93521881 C-128.3029963 196.93221586 -125.86087959 196.92426838 -123.41879654 196.91103363 C-106.39477524 196.8253993 -90.09220175 197.23755044 -74.03320312 203.57128906 C-73.29585938 203.84134766 -72.55851562 204.11140625 -71.79882812 204.38964844 C-58.04173274 209.61401252 -46.22888778 218.27292273 -34.15820312 226.50878906 C-32.4085246 227.69806425 -30.65852651 228.88686942 -28.90820312 230.07519531 C-26.33490788 231.82237983 -23.76169063 233.56967454 -21.18930054 235.31819153 C-15.99966793 238.84460226 -10.80322225 242.36032209 -5.58789062 245.84863281 C-5.0100885 246.23653992 -4.43228638 246.62444702 -3.8369751 247.02410889 C10.60152637 256.65277826 24.10502111 262.33876389 41.09179688 266.25878906 C41.09179688 237.87878906 41.09179688 209.49878906 41.09179688 180.25878906 C22.3190831 180.37734485 22.3190831 180.37734485 3.54663086 180.52905273 C1.18538826 180.53781826 -1.17585889 180.54546204 -3.53710938 180.55175781 C-4.75362183 180.56710571 -5.97013428 180.58245361 -7.22351074 180.5982666 C-15.14581431 180.60070749 -20.43556758 180.17895986 -26.65820312 174.94628906 C-32.02820114 168.53212476 -32.36481779 163.15852269 -32.34179688 155.09472656 C-32.34703873 154.02509674 -32.35228058 152.95546692 -32.35768127 151.85342407 C-32.36408821 149.59923163 -32.36278175 147.3450057 -32.35424805 145.09082031 C-32.34571451 141.63839593 -32.37455759 138.18761364 -32.40625 134.73535156 C-32.40786153 132.54264372 -32.4072854 130.34993296 -32.40429688 128.15722656 C-32.41553085 127.12487885 -32.42676483 126.09253113 -32.43833923 125.02890015 C-32.36909378 117.93270892 -32.36909378 117.93270892 -30.09594727 114.60888672 C-26.8569447 112.61003791 -24.6315552 112.72688162 -20.90820312 113.25878906 C-18.0010324 115.47741936 -17.0683867 116.77823835 -15.90820312 120.25878906 C-15.79497487 121.68522046 -15.73224836 123.11601396 -15.70288086 124.54663086 C-15.68293564 125.4072966 -15.66299042 126.26796234 -15.6424408 127.15470886 C-15.61737206 128.54234184 -15.61737206 128.54234184 -15.59179688 129.95800781 C-15.57101578 130.9081929 -15.55023468 131.85837799 -15.52882385 132.83735657 C-15.4634226 135.87359362 -15.40448709 138.90991738 -15.34570312 141.94628906 C-15.30250895 144.00424075 -15.25889437 146.06218366 -15.21484375 148.12011719 C-15.10775081 153.16625222 -15.00645667 158.21247449 -14.90820312 163.25878906 C3.98017568 163.28211689 22.86855158 163.29976766 41.7569418 163.31060123 C50.52652403 163.31576444 59.29609733 163.3228076 68.06567383 163.33422852 C75.7064259 163.34417461 83.34717151 163.35064231 90.98792988 163.35287756 C95.03618073 163.35418479 99.08441307 163.35727145 103.132658 163.36451912 C106.93860557 163.37127816 110.7445269 163.37340626 114.55047989 163.37189674 C115.95137359 163.37217312 117.35226813 163.37417894 118.75315666 163.37799454 C120.65769195 163.38292989 122.56224114 163.38118706 124.46678162 163.37904358 C126.06931872 163.38042627 126.06931872 163.38042627 127.70423031 163.38183689 C130.04543589 163.52840864 130.04543589 163.52840864 131.09179688 162.25878906 C131.19048563 160.40081926 131.21811854 158.53905564 131.21878052 156.6784668 C131.22301025 154.86111526 131.22301025 154.86111526 131.22732544 153.00704956 C131.22538085 151.6521605 131.22333266 150.29727158 131.22119141 148.94238281 C131.22254541 147.5251562 131.22432534 146.10792994 131.22650146 144.69070435 C131.23107586 140.83130665 131.22928621 136.97193557 131.22612238 133.11253738 C131.22359881 129.08242977 131.22593631 125.0523245 131.22750854 121.0222168 C131.22933025 114.25308827 131.22692391 107.48397063 131.22216797 100.71484375 C131.21672535 92.87762421 131.218488 85.04043069 131.22399437 77.20321178 C131.22852548 70.48645651 131.22917607 63.76970908 131.22655571 57.05295277 C131.22499292 53.03601975 131.22479922 49.01909898 131.22809219 45.00216675 C131.23097087 41.22656913 131.22899529 37.45100519 131.22319794 33.67541122 C131.22187032 32.28580659 131.22226449 30.89619914 131.2244606 29.50659561 C131.227172 27.61743518 131.22317738 25.72826859 131.21878052 23.83911133 C131.21840349 22.77942642 131.21802647 21.71974152 131.21763802 20.62794495 C131.35889613 18.30301989 131.35889613 18.30301989 130.09179688 17.25878906 C128.21884904 17.1622631 126.34221443 17.1369164 124.46678162 17.13853455 C123.24535461 17.13715988 122.02392761 17.13578522 120.76548767 17.1343689 C119.39956641 17.1379085 118.03364539 17.14154332 116.66772461 17.14526367 C115.23902386 17.14554554 113.81032297 17.14538782 112.38162231 17.14482117 C108.49129716 17.14453317 104.60100256 17.15043019 100.71068454 17.15739512 C96.64941483 17.16362836 92.58814448 17.16423244 88.52687073 17.16542053 C80.83100755 17.16853394 73.1351585 17.17674745 65.43930155 17.18677002 C56.68007574 17.19793087 47.92084926 17.20344154 39.16161811 17.20846546 C21.13833634 17.21893006 3.11506774 17.23652968 -14.90820312 17.25878906 C-14.91406937 17.96178635 -14.91993561 18.66478363 -14.92597961 19.38908386 C-14.98396162 26.02472394 -15.05606949 32.66004406 -15.14391804 39.29535961 C-15.18858383 42.70640371 -15.2278478 46.11732942 -15.25463867 49.52856445 C-15.28570118 53.45322055 -15.3404893 57.37737507 -15.39648438 61.30175781 C-15.4028743 62.52275681 -15.40926422 63.7437558 -15.41584778 65.00175476 C-15.44553902 66.71296257 -15.44553902 66.71296257 -15.47583008 68.45874023 C-15.48693314 69.46023605 -15.49803619 70.46173187 -15.50947571 71.49357605 C-15.97894161 74.74936723 -16.97003653 76.61792331 -18.90820312 79.25878906 C-21.90820312 81.25878906 -21.90820312 81.25878906 -25.40820312 81.13378906 C-28.90820312 80.25878906 -28.90820312 80.25878906 -30.60269165 78.57551575 C-32.25415251 75.64487629 -32.28878128 73.67364171 -32.29638672 70.31616211 C-32.3058432 69.11779221 -32.31529968 67.9194223 -32.32504272 66.68473816 C-32.31593369 64.74719414 -32.31593369 64.74719414 -32.30664062 62.77050781 C-32.30866316 61.42535749 -32.31157609 60.08020823 -32.31533813 58.73506165 C-32.31975765 55.91644852 -32.31334587 53.09812089 -32.29931641 50.27954102 C-32.28227365 46.68169344 -32.29203608 43.08451974 -32.3100338 39.4866972 C-32.32092425 36.70784011 -32.31740053 33.92914016 -32.30965042 31.15027809 C-32.30669752 29.18340744 -32.31575223 27.21653049 -32.32504272 25.24967957 C-32.26763004 17.91666085 -32.09409974 12.23511067 -27.36523438 6.33300781 C-26.82253906 5.87539063 -26.27984375 5.41777344 -25.72070312 4.94628906 C-25.19089844 4.47578125 -24.66109375 4.00527344 -24.11523438 3.52050781 C-16.74859789 -0.69086136 -8.20241164 -0.02562626 0 0 Z M57.09179688 180.25878906 C57.09179688 209.95878906 57.09179688 239.65878906 57.09179688 270.25878906 C59.73179687 270.58878906 62.37179687 270.91878906 65.09179688 271.25878906 C65.09179688 241.22878906 65.09179688 211.19878906 65.09179688 180.25878906 C62.45179688 180.25878906 59.81179688 180.25878906 57.09179688 180.25878906 Z M-269.84570312 241.25878906 C-286.25634259 258.2874024 -309.47879784 267.3607837 -332.25146484 271.79101562 C-339.20718361 273.23862647 -343.91540412 276.41219052 -347.90820312 282.25878906 C-349.96651274 286.40024087 -350.21018996 290.18028959 -350.21459961 294.72363281 C-350.22292313 295.45760284 -350.23124664 296.19157288 -350.23982239 296.94778442 C-350.26383724 299.36400718 -350.27268242 301.77995978 -350.27929688 304.19628906 C-350.28826725 305.88110432 -350.29738917 307.56591877 -350.30665588 309.25073242 C-350.32312351 312.7778517 -350.33084236 316.30487628 -350.33374023 319.83203125 C-350.33913249 324.34829657 -350.37685601 328.86367106 -350.4224844 333.37968445 C-350.45224029 336.85757699 -350.45946341 340.33525417 -350.46046638 343.81326294 C-350.46466895 345.47824194 -350.47710482 347.14322157 -350.49798393 348.80807495 C-350.52487966 351.13736514 -350.52008118 353.46457851 -350.50756836 355.79394531 C-350.52240265 356.47876984 -350.53723694 357.16359436 -350.55252075 357.86917114 C-350.49441579 361.67269353 -349.98439693 363.16666414 -347.52670288 366.13822937 C-344.98917771 368.1932128 -342.8338955 369.47951674 -339.82617188 370.71582031 C-338.89482422 371.10576172 -337.96347656 371.49570312 -337.00390625 371.89746094 C-335.5643457 372.47850586 -335.5643457 372.47850586 -334.09570312 373.07128906 C-333.11666016 373.47798828 -332.13761719 373.8846875 -331.12890625 374.30371094 C-328.72634362 375.29989544 -326.31968783 376.28444859 -323.90820312 377.25878906 C-323.67746094 376.49695313 -323.44671875 375.73511719 -323.20898438 374.95019531 C-318.56480147 360.24667553 -311.88928197 349.19156994 -297.96679688 341.70019531 C-285.2240945 335.69501374 -271.10801122 335.32211401 -257.87304688 340.00097656 C-245.18488475 345.38383322 -237.68080247 352.88784594 -231.45117188 365.11035156 C-229.27720859 370.95528576 -228.21485468 377.16108181 -226.90820312 383.25878906 C-148.36820312 383.25878906 -69.82820312 383.25878906 11.09179688 383.25878906 C11.75179688 379.62878906 12.41179687 375.99878906 13.09179688 372.25878906 C16.17395722 360.17427921 22.91566155 350.90397896 33.21289062 343.91503906 C44.9465645 337.16459439 58.48014716 335.44429208 71.71289062 337.94238281 C78.71574596 339.93023692 84.35290744 342.81728604 90.09179688 347.25878906 C91.12304688 347.98066406 92.15429688 348.70253906 93.21679688 349.44628906 C102.71196937 357.72818952 107.15179042 371.0387052 108.09179688 383.25878906 C119.39893038 384.11013242 119.39893038 384.11013242 129.09179688 379.25878906 C132.54818364 373.97875265 132.54480709 369.27869993 132.52539062 363.18066406 C132.53063248 362.21404846 132.53587433 361.24743286 132.54127502 360.25152588 C132.54768191 358.21082517 132.54637555 356.17008746 132.5378418 354.12939453 C132.52936186 351.03252044 132.55806387 347.93751106 132.58984375 344.84082031 C132.5914569 342.84993544 132.59087606 340.85904735 132.58789062 338.86816406 C132.60474159 337.49733673 132.60474159 337.49733673 132.62193298 336.09881592 C132.49015594 323.72577953 126.45421533 314.04281356 118.14648438 305.18457031 C105.42336672 293.31137753 87.54057335 291.48465388 71.12695312 288.27050781 C69.74737421 287.99931054 68.36780686 287.72805445 66.98825073 287.45674133 C61.27383589 286.33460693 55.55947237 285.21282807 49.83911133 284.12133789 C30.73158447 280.46777004 12.6346971 276.74661543 -3.97070312 266.00878906 C-4.94233398 265.40744141 -4.94233398 265.40744141 -5.93359375 264.79394531 C-11.53330451 261.2789525 -16.95282976 257.4964107 -22.39350891 253.74256897 C-29.83788768 248.60840952 -37.32470038 243.53896438 -44.83691406 238.50463867 C-46.39352195 237.45964202 -47.94819231 236.41175386 -49.50097656 235.36108398 C-60.68797237 227.7936166 -71.657148 220.58208101 -84.65820312 216.50878906 C-86.44484375 215.92871094 -86.44484375 215.92871094 -88.26757812 215.33691406 C-102.2017183 211.73337505 -116.63321917 211.96022301 -130.90820312 211.99316406 C-132.99934941 211.99181249 -135.0904954 211.98986789 -137.18164062 211.98736572 C-141.53844226 211.9844376 -145.8951612 211.98863697 -150.25195312 211.99804688 C-155.79222194 212.00943991 -161.33229686 212.00286794 -166.87255859 211.99090195 C-171.18295715 211.98362046 -175.49331092 211.98599991 -179.80371094 211.99115753 C-181.84472681 211.9924767 -183.88574695 211.99090828 -185.92675781 211.98619843 C-217.66586744 211.9290018 -247.10539095 217.36218983 -269.84570312 241.25878906 Z M-297.53320312 358.94628906 C-304.75204599 365.97516238 -308.90260513 374.57117654 -309.34570312 384.63378906 C-309.01278311 394.56590278 -304.99771301 403.31782129 -297.90820312 410.25878906 C-290.18037714 416.1334496 -281.74984273 419.41238784 -271.90820312 418.25878906 C-261.28106623 416.08582816 -253.15139671 411.20473228 -246.90820312 402.25878906 C-241.83536141 393.78908873 -241.4572209 383.91517001 -243.53320312 374.39160156 C-246.5898977 365.63089658 -253.05090777 358.32284262 -261.36132812 354.19628906 C-274.65360295 349.30342716 -285.95025364 351.50010725 -297.53320312 358.94628906 Z M35.34570312 361.88769531 C28.36702661 369.38846733 25.78000531 378.09958067 26.09179688 388.25878906 C27.57137775 398.92884344 32.91779343 405.98410034 41.00585938 412.78613281 C47.75888794 417.55372039 55.99821398 418.96587275 64.09179688 418.25878906 C73.62290015 416.30957095 80.9505949 411.81719149 87.09179688 404.25878906 C91.9849474 396.20836146 94.49997676 388.2331603 92.59570312 378.80175781 C89.75204893 368.34289408 84.3284176 360.56941152 74.92773438 354.96972656 C61.08284646 348.16958727 46.41931957 351.5572746 35.34570312 361.88769531 Z " fill="#000000" transform="translate(364.908203125,38.7412109375)"/>
<path d="M0 0 C2.27672831 0.00051998 4.55345707 -0.00000304 6.83018494 -0.00151062 C11.57802117 -0.00142142 16.32568576 0.0089006 21.07348633 0.02709961 C27.12404333 0.04979747 33.1743505 0.0503226 39.22493839 0.04358196 C43.91871822 0.04022247 48.61244227 0.04690899 53.30621147 0.0567112 C55.53587997 0.06052841 57.76555471 0.06172605 59.99522591 0.06012535 C93.46873292 0.05610563 115.87644513 8.86483538 143.17185974 27.84007263 C150.18156367 32.70294657 157.30114227 37.40094615 164.4125061 42.11322021 C189.80517637 58.94677911 189.80517637 58.94677911 192.27734375 66.36328125 C192.90653544 71.45534422 193.09696816 75.87581473 190.58984375 80.42578125 C185.75880776 84.473406 181.06035102 84.6523098 174.95835876 84.61724854 C173.70661695 84.62192851 173.70661695 84.62192851 172.42958742 84.62670302 C169.63519658 84.63467613 166.8410233 84.62836206 164.04663086 84.62207031 C162.04255547 84.62478046 160.03848107 84.62834152 158.03440857 84.63269043 C152.59243606 84.6418133 147.15053932 84.63827072 141.70856547 84.63193226 C136.01693564 84.62687246 130.32531234 84.63156359 124.63368225 84.63470459 C115.07633294 84.63834399 105.51901454 84.63354549 95.96166992 84.62402344 C84.90591136 84.61313584 73.85022655 84.6166668 62.79446977 84.62767625 C53.30732972 84.63674613 43.82021189 84.63803596 34.33306891 84.63279891 C28.66450228 84.62967797 22.99597034 84.62927335 17.32740593 84.63587189 C11.9996361 84.64164047 6.67196156 84.63765736 1.34420204 84.62608337 C-0.61337755 84.62343432 -2.57096513 84.62420605 -4.52854156 84.6286087 C-7.19602171 84.63405578 -9.86319447 84.62724023 -12.53065491 84.61724854 C-13.3093464 84.62170998 -14.08803788 84.62617142 -14.89032608 84.63076806 C-21.79299699 84.58045195 -21.79299699 84.58045195 -24.72265625 82.36328125 C-26.22421337 78.74589365 -26.95474452 76.40767848 -26.09765625 72.55078125 C-24.72265625 70.36328125 -24.72265625 70.36328125 -20.72265625 68.36328125 C-12.14265625 68.36328125 -3.56265625 68.36328125 5.27734375 68.36328125 C5.27734375 51.20328125 5.27734375 34.04328125 5.27734375 16.36328125 C-22.05618111 16.84921058 -45.48924261 18.09307959 -65.72265625 38.36328125 C-75.0688026 46.98333257 -85.1522541 54.28607861 -96.203125 60.5390625 C-98.83729523 62.11691388 -98.83729523 62.11691388 -99.6484375 64.53125 C-99.67292969 65.13582031 -99.69742188 65.74039063 -99.72265625 66.36328125 C-97.77049157 68.31544593 -94.03324761 67.54725052 -91.36328125 67.57421875 C-89.83983325 67.60230045 -88.3163959 67.630965 -86.79296875 67.66015625 C-84.38574671 67.70133887 -81.97872072 67.73821466 -79.57128906 67.76464844 C-77.25153143 67.79234419 -74.93268518 67.83822936 -72.61328125 67.88671875 C-71.54113373 67.89159805 -71.54113373 67.89159805 -70.44732666 67.89657593 C-66.05696626 68.00399394 -63.21975588 68.66742837 -59.72265625 71.36328125 C-58.30223804 74.20411766 -58.40813353 76.21805403 -58.72265625 79.36328125 C-60.58975535 81.66603681 -62.07913366 83.04151996 -64.72265625 84.36328125 C-67.25525383 84.48645843 -69.75924579 84.55165885 -72.29296875 84.56640625 C-73.04802704 84.57210632 -73.80308533 84.5778064 -74.58102417 84.5836792 C-76.18323362 84.59313542 -77.78546258 84.59966565 -79.38769531 84.60351562 C-81.81741353 84.61316119 -84.24626382 84.64415206 -86.67578125 84.67578125 C-88.23567208 84.68231764 -89.79556895 84.68756561 -91.35546875 84.69140625 C-92.07348663 84.70375305 -92.79150452 84.71609985 -93.53128052 84.7288208 C-100.0264425 84.70071995 -105.46359082 83.2709365 -110.53515625 78.98828125 C-115.36359358 73.19415646 -116.43486373 69.15084666 -116.15625 61.63671875 C-115.42893564 56.14582297 -113.85256831 53.083454 -109.72265625 49.36328125 C-106.18022683 46.91711678 -102.47599847 44.75040767 -98.75244141 42.59375 C-90.30265475 37.67427153 -83.30547292 31.66985395 -76.1953125 24.98828125 C-54.10825207 4.36891852 -29.3345162 -0.13351766 0 0 Z M20.27734375 16.36328125 C20.27734375 33.52328125 20.27734375 50.68328125 20.27734375 68.36328125 C71.09734375 68.36328125 121.91734375 68.36328125 174.27734375 68.36328125 C170.08345666 65.00099143 170.08345666 65.00099143 165.73828125 61.92822266 C165.08497833 61.49274612 164.43167542 61.05726959 163.75857544 60.6085968 C163.06351898 60.14865829 162.36846252 59.68871979 161.65234375 59.21484375 C160.91660126 58.72521652 160.18085876 58.23558929 159.42282104 57.73112488 C157.04254267 56.14783412 154.66007493 54.56787784 152.27734375 52.98828125 C149.82153899 51.35781097 147.36605435 49.72685948 144.91061401 48.09584045 C143.28933182 47.01899386 141.66785244 45.94244408 140.0461731 44.86619568 C135.54522468 41.8773994 131.05613672 38.87258042 126.58203125 35.84375 C125.64230469 35.20937012 124.70257813 34.57499023 123.734375 33.92138672 C122.08538659 32.80657326 120.43924867 31.68752398 118.796875 30.56298828 C111.47357554 25.62751067 103.92081241 21.57093236 95.40234375 19.11328125 C94.33242188 18.79875 93.2625 18.48421875 92.16015625 18.16015625 C91.20882812 17.8971875 90.2575 17.63421875 89.27734375 17.36328125 C88.69031677 17.18418716 88.10328979 17.00509308 87.49847412 16.8205719 C84.58405031 16.22054465 81.83253401 16.24398825 78.85644531 16.24975586 C77.55539856 16.24983139 76.25435181 16.24990692 74.91387939 16.24998474 C73.49857546 16.25509101 72.08327191 16.260307 70.66796875 16.265625 C69.21637012 16.2674909 67.76477087 16.26891399 66.31317139 16.26991272 C62.49914806 16.27372437 58.68516302 16.2835431 54.87115479 16.2946167 C50.29144583 16.30666197 45.71172405 16.3112395 41.13200378 16.31707001 C34.18042384 16.32675559 27.22892785 16.34592158 20.27734375 16.36328125 Z " fill="#000000" transform="translate(177.72265625,260.63671875)"/>
<path d="M0 0 C0.7281189 -0.00570007 1.45623779 -0.01140015 2.2064209 -0.01727295 C3.75315904 -0.02673097 5.29991741 -0.03326011 6.84667969 -0.03710938 C9.18201575 -0.04672377 11.51643656 -0.07769885 13.8515625 -0.109375 C21.87145248 -0.16578349 29.19177949 0.10648541 36.71875 3.203125 C38.08 3.76 38.08 3.76 39.46875 4.328125 C45.45822349 9.31935291 48.50368227 15.59285493 49.53125 23.24609375 C50.19506211 33.71496391 49.06078081 42.78725084 42.18359375 51.046875 C34.05448333 58.88771909 23.93184302 58.48595036 13.32348633 58.35693359 C11.12148978 58.31569692 8.92023418 58.26561254 6.71875 58.203125 C6.74493408 59.05543701 6.77111816 59.90774902 6.7980957 60.78588867 C6.88356492 63.96339627 6.94611789 67.1403161 6.9934082 70.31860352 C7.01847617 71.69119602 7.05254082 73.06365602 7.09594727 74.43579102 C7.15692531 76.41363196 7.18236009 78.39246684 7.20703125 80.37109375 C7.23321533 81.55985107 7.25939941 82.7486084 7.28637695 83.97338867 C6.55546417 88.1322038 4.9442785 89.57827276 1.71875 92.203125 C-0.34375 92.8671875 -0.34375 92.8671875 -2.28125 92.828125 C-3.2403125 92.84746094 -3.2403125 92.84746094 -4.21875 92.8671875 C-7.57013896 91.78814181 -9.07849541 89.91063187 -11.28125 87.203125 C-11.76137258 84.32316419 -11.93796764 82.04228828 -11.88061523 79.17163086 C-11.88455795 78.37753311 -11.88850067 77.58343536 -11.89256287 76.76527405 C-11.89925827 74.14885715 -11.8701451 71.53419797 -11.83984375 68.91796875 C-11.83559201 67.09624062 -11.83326489 65.27450707 -11.83277893 63.45277405 C-11.8266181 59.63875703 -11.80393927 55.82532835 -11.76831055 52.01147461 C-11.72300637 47.1232048 -11.70828259 42.23546716 -11.70457363 37.3470068 C-11.70014467 33.58690648 -11.68484067 29.82691778 -11.6656971 26.06686592 C-11.65681989 24.26434814 -11.65008746 22.46181848 -11.64553642 20.65928459 C-11.63649114 18.14106108 -11.61409883 15.62331787 -11.58764648 13.10522461 C-11.58698181 12.36070038 -11.58631714 11.61617615 -11.58563232 10.84909058 C-11.53242725 7.17820922 -11.43745113 4.26163827 -9.28125 1.203125 C-6.30774168 -0.28362916 -3.26194588 0.01974725 0 0 Z M6.71875 15.203125 C6.71875 24.773125 6.71875 34.343125 6.71875 44.203125 C10.988125 44.3578125 10.988125 44.3578125 15.34375 44.515625 C16.22885254 44.56114502 17.11395508 44.60666504 18.02587891 44.65356445 C22.10148498 44.72465594 24.91932521 44.52947185 28.2109375 41.984375 C31.85905471 37.938488 32.4663411 34.54442294 32.71875 29.203125 C32.40521198 24.79829823 31.17051021 21.77698256 28.40625 18.265625 C22.08435921 13.41394137 14.5262987 15.203125 6.71875 15.203125 Z " fill="#000000" transform="translate(407.28125,80.796875)"/>
<path d="M0 0 C2.85611372 2.64498416 4.44481052 4.43523755 5.77734375 8.13671875 C5.62676083 11.60012583 4.75546952 13.2854446 2.65234375 16.01171875 C-0.19954217 17.43766171 -2.18320188 17.31770638 -5.34765625 17.01171875 C-7.8828125 15.359375 -7.8828125 15.359375 -10.41015625 13.07421875 C-31.75724369 -5.28082409 -56.5991063 -16.44855582 -85.03515625 -16.30078125 C-86.17710449 -16.2951416 -87.31905273 -16.28950195 -88.49560547 -16.28369141 C-115.5707481 -15.89662992 -141.68910586 -5.15949284 -161.28515625 13.63671875 C-164.2127612 16.32489132 -165.1114537 16.96525267 -169.16015625 17.76171875 C-172.91377739 16.87851378 -174.2631341 16.26357331 -176.34765625 13.01171875 C-176.91015625 9.63671875 -176.91015625 9.63671875 -176.34765625 6.01171875 C-173.0169664 1.48931418 -169.28136889 -1.9500115 -164.84765625 -5.36328125 C-164.23672119 -5.83660889 -163.62578613 -6.30993652 -162.99633789 -6.79760742 C-112.92365933 -44.9731053 -47.01135963 -39.81494517 0 0 Z " fill="#000000" transform="translate(290.34765625,108.98828125)"/>
<path d="M0 0 C6.65387976 5.44515028 6.65387976 5.44515028 8.21484375 9.25 C8.21484375 12.74708734 7.02478967 14.86295849 5.21484375 17.8125 C2.08760984 19.37611695 -0.33198099 19.13498961 -3.78515625 18.8125 C-6.6015625 16.87109375 -6.6015625 16.87109375 -9.34765625 14.25 C-22.08034667 2.78345402 -38.56282528 -2.67033489 -55.6484375 -2.390625 C-72.22662388 -1.31706872 -86.25383052 5.05190508 -98.78515625 15.8125 C-101.61130325 18.15666844 -102.51502683 18.77873382 -106.28515625 19.25 C-109.78515625 18.8125 -109.78515625 18.8125 -112.22265625 17.25 C-114.41537512 13.82935857 -114.41523318 11.80298721 -113.78515625 7.8125 C-111.78515625 5.3125 -111.78515625 5.3125 -108.78515625 2.8125 C-108.22699219 2.27882812 -107.66882813 1.74515625 -107.09375 1.1953125 C-77.46845968 -26.63637986 -30.79215072 -23.70764086 0 0 Z " fill="#000000" transform="translate(257.78515625,137.1875)"/>
<path d="M0 0 C4.53454385 3.81313915 8.11465522 8.34396567 10 14 C10.68257239 22.2433742 9.80379217 28.56821452 4.625 35.25 C0.38846382 39.688276 -3.48148431 41.71981192 -9.55078125 42.203125 C-16.9930643 42.32944381 -21.224152 41.24752857 -27.625 37.4375 C-32.38396523 32.55329885 -35.27735099 26.74531223 -35.5 19.875 C-35.02829246 12.1462534 -32.68667558 6.74491908 -26.94921875 1.4765625 C-18.99399505 -4.54963902 -8.65477281 -4.74494123 0 0 Z M-17.375 14.625 C-19.46379841 17.67785921 -19.54068562 19.36968224 -19 23 C-17.56222319 25.08477638 -16.40201761 25.81239178 -14.125 26.875 C-10.93366377 27.06272566 -9.47309056 25.95243991 -7 24 C-5.34977824 21.70835053 -5.34977824 21.70835053 -5 19 C-6.11763207 16.65829471 -7.16324361 14.83675639 -9 13 C-12.56299065 12.60411215 -14.37639795 12.57332492 -17.375 14.625 Z " fill="#000000" transform="translate(437,404)"/>
<path d="M0 0 C5.94253311 3.85923127 9.44663719 9.48073808 11.0390625 16.32421875 C11.77142967 22.9155233 10.3796131 27.60694855 7.0390625 33.32421875 C2.84116817 38.57158666 -2.18164656 41.82065239 -8.86328125 42.7109375 C-15.38689308 42.9495059 -20.68677093 42.35047984 -25.9609375 38.32421875 C-30.58215679 33.97119522 -33.58720604 29.71822189 -34.296875 23.2734375 C-34.37797105 16.50191722 -34.39018993 10.74049122 -29.9609375 5.32421875 C-21.18181375 -2.86840822 -11.08725517 -5.58280517 0 0 Z M-17.3984375 15.51171875 C-19.18623028 18.17069214 -19.18623028 18.17069214 -18.8984375 20.94921875 C-17.60035577 24.23769247 -16.28248668 25.7074958 -13.0859375 27.19921875 C-9.80913067 27.39197209 -8.41901348 26.4501223 -5.9609375 24.32421875 C-4.71255369 20.91892879 -4.71255369 20.91892879 -4.9609375 17.32421875 C-6.37760417 14.74088542 -6.37760417 14.74088542 -8.9609375 13.32421875 C-12.99589977 12.56766332 -14.31575648 12.74521014 -17.3984375 15.51171875 Z " fill="#000000" transform="translate(100.9609375,403.67578125)"/>
<path d="M0 0 C8.30415755 5.6083151 8.30415755 5.6083151 10 9 C10.27858381 12.20371381 10.28907329 14.37084049 8.9375 17.3125 C6.00868723 19.86340145 3.84094012 20 0 20 C-2.9375 18.3125 -2.9375 18.3125 -6 16 C-13.04050135 12.13041147 -19.18624143 9.75279166 -27.3125 11.49609375 C-31.18570863 12.65413079 -34.13090458 13.87775819 -37.125 16.625 C-40.5490389 19.45355387 -42.59871862 19.91849479 -47 20 C-49.3125 19.5 -49.3125 19.5 -51 18 C-52.56873225 14.38509524 -53.44327536 12.21161932 -52.0625 8.4375 C-39.3709276 -6.56163102 -16.9321696 -10.09900917 0 0 Z " fill="#000000" transform="translate(226,166)"/>
<path d="M0 0 C1.27746094 -0.00064453 2.55492187 -0.00128906 3.87109375 -0.00195312 C4.86471924 0.01363647 4.86471924 0.01363647 5.87841797 0.02954102 C7.90024898 0.05850777 9.91945672 0.0501431 11.94140625 0.03710938 C23.032519 0.10985633 23.032519 0.10985633 26.40625 3.49609375 C27.60987584 7.18721301 27.75043291 8.79208326 26.03125 12.30859375 C24.40625 14.49609375 24.40625 14.49609375 23.40625 15.49609375 C19.18631424 15.76248064 14.96048833 15.7673655 10.7331543 15.79125977 C8.61245623 15.80844219 6.49332988 15.85230667 4.37304688 15.89648438 C3.02344898 15.90661395 1.6738378 15.91512923 0.32421875 15.921875 C-1.52006714 15.94374878 -1.52006714 15.94374878 -3.40161133 15.96606445 C-6.59375 15.49609375 -6.59375 15.49609375 -8.99487305 13.68823242 C-11.32686978 10.49095059 -11.14456784 8.35181865 -10.59375 4.49609375 C-7.49249044 0.30574591 -5.0793601 -0.00805469 0 0 Z " fill="#000000" transform="translate(196.59375,354.50390625)"/>
</svg>
